<svg width="40" height="40" viewBox="0 0 40 40" fill="none" xmlns="http://www.w3.org/2000/svg">
<path d="M10.5508 28.9727C10.5508 29.8868 11.2969 30.6329 12.2148 30.6329H14.1172V35.336C14.1172 36.5274 15.0742 37.5001 16.25 37.5001C17.4297 37.5001 18.3828 36.5313 18.3828 35.336V30.629H21.7031V35.3321C21.7031 36.5235 22.6601 37.4962 23.8359 37.4962C25.0156 37.4962 25.9687 36.5274 25.9687 35.3321V30.629H27.8711C28.789 30.629 29.5351 29.8829 29.5351 28.9688V13.5313H10.5508V28.9727V28.9727ZM24.5 5.53134L26.2539 2.99228C26.3554 2.84384 26.332 2.64462 26.1953 2.54697C26.0586 2.45322 25.8633 2.50009 25.7617 2.64853L23.9414 5.28915C22.7422 4.8165 21.4062 4.55478 20.0039 4.55478C18.6015 4.55478 17.2656 4.8165 16.0664 5.28915L14.2461 2.65244C14.1445 2.504 13.9492 2.45322 13.8125 2.55087C13.6758 2.64462 13.6523 2.83994 13.7539 2.99619L15.5078 5.53525C12.7187 6.83212 10.7656 9.28915 10.5156 12.1602H29.5C29.2422 9.28524 27.2851 6.82822 24.5 5.53134V5.53134ZM15.9961 9.53524C15.7883 9.53524 15.5851 9.47362 15.4123 9.35816C15.2395 9.24269 15.1048 9.07859 15.0253 8.88658C14.9458 8.69457 14.9249 8.4833 14.9655 8.27947C15.006 8.07564 15.1061 7.8884 15.2531 7.74145C15.4 7.5945 15.5873 7.49442 15.7911 7.45387C15.9949 7.41333 16.2062 7.43414 16.3982 7.51367C16.5902 7.5932 16.7543 7.72788 16.8698 7.90068C16.9852 8.07348 17.0469 8.27664 17.0469 8.48446C17.0461 8.76293 16.9352 9.02978 16.7383 9.22668C16.5414 9.42358 16.2745 9.53452 15.9961 9.53524V9.53524ZM24.1367 9.53524C23.9289 9.53524 23.7257 9.47362 23.5529 9.35816C23.3801 9.24269 23.2454 9.07859 23.1659 8.88658C23.0864 8.69457 23.0656 8.4833 23.1061 8.27947C23.1467 8.07564 23.2467 7.8884 23.3937 7.74145C23.5406 7.5945 23.7279 7.49442 23.9317 7.45387C24.1355 7.41333 24.3468 7.43414 24.5388 7.51367C24.7308 7.5932 24.8949 7.72788 25.0104 7.90068C25.1259 8.07348 25.1875 8.27664 25.1875 8.48446C25.1868 8.76293 25.0758 9.02978 24.8789 9.22668C24.682 9.42358 24.4152 9.53452 24.1367 9.53524ZM32.8633 13.4688C31.6836 13.4688 30.7304 14.4376 30.7304 15.6329V24.086C30.7304 25.2774 31.6875 26.2501 32.8633 26.2501C34.0429 26.2501 34.9961 25.2813 34.9961 24.086V15.629C35 14.4337 34.0468 13.4688 32.8633 13.4688ZM7.13672 13.4688C5.95703 13.4688 5.00391 14.4376 5.00391 15.6329V24.086C5.00391 25.2774 5.96094 26.2501 7.13672 26.2501C8.3164 26.2501 9.26953 25.2813 9.26953 24.086V15.629C9.26953 14.4337 8.3125 13.4688 7.13672 13.4688Z" fill="white"/>
</svg>
