<svg width="40" height="40" viewBox="0 0 40 40" fill="none" xmlns="http://www.w3.org/2000/svg">
<g clip-path="url(#clip0_1434_102)">
<path d="M11.7959 39.2513C11.0073 38.7266 10.3083 38.0783 9.72594 37.3313C9.08529 36.5602 8.49172 35.7513 7.94844 34.9088C6.67354 33.0411 5.67373 30.9998 4.97969 28.8475C4.14594 26.3475 3.74219 23.9513 3.74219 21.6075C3.74219 18.99 4.30844 16.705 5.41594 14.785C6.23691 13.2843 7.44395 12.0302 8.91219 11.1525C10.3351 10.2687 11.97 9.78509 13.6447 9.75253C14.2309 9.75253 14.8622 9.83753 15.5322 10C16.0134 10.1363 16.5997 10.3513 17.3159 10.6188C18.2272 10.97 18.7284 11.185 18.8984 11.2375C19.4322 11.4325 19.8809 11.5175 20.2334 11.5175C20.5009 11.5175 20.8784 11.4325 21.3072 11.3025C21.5484 11.2175 22.0034 11.0675 22.6547 10.7888C23.2997 10.5538 23.8072 10.3525 24.2109 10.2025C24.8297 10.02 25.4284 9.85128 25.9622 9.76628C26.595 9.66652 27.2371 9.6401 27.8759 9.68753C28.983 9.75989 30.0733 9.99447 31.1122 10.3838C32.8109 11.0675 34.1847 12.135 35.2072 13.6525C34.775 13.9189 34.3694 14.2261 33.9959 14.57C33.1829 15.2908 32.4905 16.1369 31.9447 17.0763C31.2313 18.3601 30.8615 19.8064 30.8709 21.275C30.8972 23.0788 31.3597 24.6675 32.2709 26.0413C32.9409 27.0594 33.8116 27.9301 34.8297 28.6C35.3509 28.9513 35.7997 29.1925 36.2297 29.355C36.0284 29.98 35.8134 30.585 35.5597 31.185C34.9842 32.5305 34.2867 33.8205 33.4759 35.0388C32.7534 36.0875 32.1872 36.8688 31.7572 37.3888C31.0872 38.1825 30.4422 38.7888 29.7909 39.2113C29.0747 39.6863 28.2284 39.94 27.3684 39.94C26.786 39.9624 26.2037 39.8919 25.6434 39.7313C25.1622 39.5688 24.6859 39.3925 24.2172 39.1913C23.7299 38.9674 23.2274 38.7782 22.7134 38.625C21.4431 38.2987 20.1111 38.2966 18.8397 38.6188C18.3184 38.7688 17.8172 38.9438 17.3222 39.1588C16.6259 39.4513 16.1634 39.6475 15.8959 39.7313C15.3622 39.8875 14.8084 39.985 14.2484 40.0175C13.3822 40.0175 12.5747 39.77 11.7747 39.2688L11.7959 39.2513ZM23.2209 8.48253C22.0884 9.04878 21.0072 9.29003 19.9334 9.21128C19.7647 8.13003 19.9334 7.02378 20.3822 5.81253C20.7642 4.78636 21.3287 3.83776 22.0484 3.01253C22.8084 2.14381 23.7307 1.43175 24.7634 0.916279C25.8634 0.350029 26.9122 0.0437793 27.9147 -0.0012207C28.0447 1.13128 27.9147 2.24503 27.4984 3.44878C27.1132 4.51288 26.5498 5.50369 25.8322 6.37878C25.0998 7.24869 24.2009 7.96351 23.1884 8.48128L23.2209 8.48253Z" fill="white"/>
</g>
<defs>
<clipPath id="clip0_1434_102">
<rect width="40" height="40" fill="white"/>
</clipPath>
</defs>
</svg>
